<svg width="171" height="31" viewBox="0 0 171 31" fill="none" xmlns="http://www.w3.org/2000/svg">
<path d="M12.105 3.02631C5.37487 3.29116 0 8.83303 0 15.6308C0 15.9385 0.0110194 16.2438 0.0326851 16.546C2.66056 12.6252 7.0719 10.0013 12.105 9.8364V3.02631Z" fill="#14213D"/>
<path d="M13.366 9.84674C18.2941 10.0895 22.6022 12.6909 25.1861 16.546C25.2078 16.2438 25.2188 15.9385 25.2188 15.6308C25.2188 8.91815 19.9777 3.43015 13.366 3.03873V9.84674Z" fill="#14213D"/>
<path d="M24.8894 18.5078C22.5668 14.0969 17.9392 11.0896 12.6094 11.0896C7.27962 11.0896 2.65196 14.0969 0.329453 18.5078C0.504551 19.2587 0.74669 19.9838 1.04921 20.6765C2.99499 16.2213 7.43874 13.1079 12.6094 13.1079C17.7801 13.1079 22.2238 16.2214 24.1696 20.6765C24.4721 19.9838 24.7143 19.2587 24.8894 18.5078Z" fill="#14213D"/>
<path d="M12.6094 14.3693C7.58073 14.3693 3.31598 17.6413 1.82644 22.1733C2.1658 22.7318 2.5473 23.2619 2.96653 23.7592C4.23479 19.6364 8.07229 16.6399 12.6094 16.6399C17.1465 16.6399 20.984 19.6364 22.2523 23.7592C22.6715 23.2619 23.053 22.7319 23.3924 22.1733C21.9028 17.6413 17.6381 14.3693 12.6094 14.3693Z" fill="#14213D"/>
<path d="M21.2319 24.8349C20.3645 20.8696 16.8334 17.9013 12.6094 17.9013C8.38537 17.9013 4.85435 20.8696 3.98689 24.8349C4.39101 25.214 4.82011 25.5667 5.27145 25.8903C6.09665 22.6047 9.06904 20.1719 12.6094 20.1719C16.1498 20.1719 19.1222 22.6047 19.9474 25.8903C20.3987 25.5667 20.8278 25.214 21.2319 24.8349Z" fill="#14213D"/>
<path d="M12.6094 28.2451C14.8649 28.2451 16.9821 27.6527 18.814 26.6149C18.2834 23.6686 15.7073 21.4334 12.6094 21.4334C9.51148 21.4334 6.93542 23.6686 6.40482 26.6149C8.2367 27.6527 10.3539 28.2451 12.6094 28.2451Z" fill="#14213D"/>
<path d="M51.5722 7.34683V25H47.4868V17.7622H39.4672V25H35.3817V7.34683H39.4672V14.3072H47.4868V7.34683H51.5722ZM68.9383 11.4323L62.8101 25.8322C62.1881 27.3958 61.4147 28.497 60.49 29.1359C59.5821 29.7748 58.4809 30.0942 57.1864 30.0942C56.4802 30.0942 55.7825 29.9849 55.0932 29.7664C54.4039 29.5478 53.8407 29.2452 53.4035 28.8585L54.841 26.0592C55.1436 26.3282 55.4883 26.5383 55.875 26.6897C56.2785 26.841 56.6736 26.9166 57.0603 26.9166C57.5983 26.9166 58.0354 26.7821 58.3716 26.5131C58.7079 26.2609 59.0105 25.8322 59.2795 25.227L59.33 25.1009L53.454 11.4323H57.5142L61.3222 20.6371L65.1555 11.4323H68.9383ZM78.5632 11.2305C79.8242 11.2305 80.9674 11.5247 81.993 12.1132C83.0354 12.6848 83.8508 13.5002 84.4392 14.5594C85.0277 15.6018 85.3219 16.8207 85.3219 18.2161C85.3219 19.6116 85.0277 20.8389 84.4392 21.8981C83.8508 22.9405 83.0354 23.7559 81.993 24.3443C80.9674 24.9159 79.8242 25.2018 78.5632 25.2018C76.8315 25.2018 75.4697 24.6553 74.4778 23.5625V29.8924H70.5437V11.4323H74.3013V12.9958C75.2764 11.819 76.697 11.2305 78.5632 11.2305ZM77.8823 21.9737C78.8911 21.9737 79.7149 21.6375 80.3538 20.965C81.0095 20.2757 81.3373 19.3594 81.3373 18.2161C81.3373 17.0729 81.0095 16.165 80.3538 15.4925C79.7149 14.8032 78.8911 14.4585 77.8823 14.4585C76.8736 14.4585 76.0414 14.8032 75.3857 15.4925C74.7468 16.165 74.4273 17.0729 74.4273 18.2161C74.4273 19.3594 74.7468 20.2757 75.3857 20.965C76.0414 21.6375 76.8736 21.9737 77.8823 21.9737ZM101.246 18.2666C101.246 18.317 101.221 18.6701 101.17 19.3258H90.9061C91.091 20.1664 91.5281 20.8305 92.2174 21.3181C92.9068 21.8056 93.7642 22.0494 94.7898 22.0494C95.4959 22.0494 96.118 21.9485 96.656 21.7468C97.2108 21.5282 97.7235 21.192 98.1943 20.738L100.287 23.0077C99.0097 24.4704 97.1435 25.2018 94.6889 25.2018C93.1589 25.2018 91.8055 24.9075 90.6287 24.3191C89.4518 23.7138 88.5439 22.8816 87.905 21.8224C87.2661 20.7632 86.9467 19.5611 86.9467 18.2161C86.9467 16.8879 87.2577 15.6943 87.8798 14.6351C88.5187 13.5591 89.3845 12.7268 90.4773 12.1384C91.587 11.5332 92.8227 11.2305 94.1845 11.2305C95.5127 11.2305 96.7148 11.5163 97.7908 12.088C98.8668 12.6596 99.7074 13.4834 100.313 14.5594C100.935 15.6186 101.246 16.8543 101.246 18.2666ZM94.2097 14.2063C93.3187 14.2063 92.5705 14.4585 91.9653 14.9629C91.36 15.4673 90.9901 16.1566 90.8556 17.0309H97.5386C97.4041 16.1734 97.0342 15.4925 96.429 14.9881C95.8237 14.4669 95.084 14.2063 94.2097 14.2063ZM107.623 13.2228C108.093 12.5671 108.724 12.0712 109.514 11.7349C110.321 11.3987 111.246 11.2305 112.288 11.2305V14.862C111.851 14.8284 111.557 14.8116 111.405 14.8116C110.279 14.8116 109.396 15.131 108.757 15.7699C108.119 16.392 107.799 17.3335 107.799 18.5944V25H103.865V11.4323H107.623V13.2228ZM122.647 11.2305C123.908 11.2305 125.051 11.5247 126.077 12.1132C127.119 12.6848 127.934 13.5002 128.523 14.5594C129.111 15.6018 129.406 16.8207 129.406 18.2161C129.406 19.6116 129.111 20.8389 128.523 21.8981C127.934 22.9405 127.119 23.7559 126.077 24.3443C125.051 24.9159 123.908 25.2018 122.647 25.2018C120.915 25.2018 119.553 24.6553 118.561 23.5625V29.8924H114.627V11.4323H118.385V12.9958C119.36 11.819 120.781 11.2305 122.647 11.2305ZM121.966 21.9737C122.975 21.9737 123.799 21.6375 124.437 20.965C125.093 20.2757 125.421 19.3594 125.421 18.2161C125.421 17.0729 125.093 16.165 124.437 15.4925C123.799 14.8032 122.975 14.4585 121.966 14.4585C120.957 14.4585 120.125 14.8032 119.469 15.4925C118.83 16.165 118.511 17.0729 118.511 18.2161C118.511 19.3594 118.83 20.2757 119.469 20.965C120.125 21.6375 120.957 21.9737 121.966 21.9737ZM132.039 6.28764H135.973V25H132.039V6.28764ZM145.097 11.2305C147.199 11.2305 148.813 11.7349 149.939 12.7437C151.065 13.7356 151.629 15.2403 151.629 17.2578V25H147.947V23.3103C147.207 24.5713 145.828 25.2018 143.811 25.2018C142.768 25.2018 141.861 25.0252 141.087 24.6722C140.331 24.3191 139.751 23.8315 139.347 23.2095C138.944 22.5874 138.742 21.8813 138.742 21.0911C138.742 19.8301 139.213 18.8382 140.154 18.1153C141.112 17.3923 142.583 17.0309 144.567 17.0309H147.694C147.694 16.1734 147.434 15.5177 146.913 15.0638C146.392 14.593 145.61 14.3577 144.567 14.3577C143.844 14.3577 143.13 14.4753 142.424 14.7107C141.734 14.9293 141.146 15.2319 140.658 15.6186L139.246 12.8698C139.986 12.3486 140.869 11.9451 141.894 11.6592C142.937 11.3734 144.004 11.2305 145.097 11.2305ZM144.794 22.5538C145.467 22.5538 146.064 22.4025 146.585 22.0998C147.106 21.7804 147.476 21.3181 147.694 20.7128V19.3258H144.996C143.382 19.3258 142.575 19.8554 142.575 20.9146C142.575 21.4189 142.768 21.8224 143.155 22.1251C143.559 22.4109 144.105 22.5538 144.794 22.5538ZM163.436 11.2305C165.117 11.2305 166.47 11.7349 167.496 12.7437C168.538 13.7524 169.06 15.2487 169.06 17.2326V25H165.125V17.8379C165.125 16.7619 164.89 15.9633 164.419 15.4421C163.949 14.9041 163.268 14.6351 162.377 14.6351C161.385 14.6351 160.594 14.9461 160.006 15.5682C159.418 16.1734 159.123 17.0813 159.123 18.2918V25H155.189V11.4323H158.947V13.0211C159.468 12.4494 160.115 12.0123 160.889 11.7097C161.662 11.3902 162.511 11.2305 163.436 11.2305Z" fill="#14213D"/>
</svg>
