<svg width="20" height="20" viewBox="0 0 20 20" fill="none" xmlns="http://www.w3.org/2000/svg">
<path d="M20 2.14286V17.8571C20 19.0406 19.0406 20 17.8571 20H2.14286C0.959375 20 0 19.0406 0 17.8571V2.14286C0 0.959375 0.959375 0 2.14286 0H17.8571C19.0406 0 20 0.959375 20 2.14286ZM16.0714 2.85714H11.0727C10.1213 2.85714 9.64058 4.01165 10.3151 4.68621L11.7429 6.1142L3.01406 14.8431C2.80487 15.0523 2.80487 15.3915 3.01406 15.6007L4.39929 16.9859C4.60853 17.1951 4.94772 17.1951 5.15692 16.9859L13.8858 8.2571L15.3138 9.68527C15.9847 10.3561 17.1429 9.88505 17.1429 8.92763V3.92857C17.1429 3.33683 16.6632 2.85714 16.0714 2.85714Z" fill="#69BE82"/>
</svg>
